<svg xmlns="http://www.w3.org/2000/svg" width="715.5" height="1234">
<defs><marker id="arrow-filled" refX="6" refY="3" markerWidth="6" markerHeight="6" orient="auto"><path d="M0,0 6,3 0,6z" style="stroke: none; fill: black;"></path></marker><marker id="arrow-open" refX="6" refY="3" markerWidth="6" markerHeight="6" orient="auto"><path d="M0,0 6,3 0,6" style="stroke-width: 1; fill: none; stroke: black;"></path></marker></defs><rect width="79.5" height="38" style="stroke-width: 1; fill: none; stroke: black;" x="10" y="20"></rect><g><text fill="black" font-family="Helvetica,sans-Serif" x="49.75" y="39" style="text-anchor: middle; alignment-baseline: central;">Browser</text></g><rect width="79.5" height="38" style="stroke-width: 1; fill: none; stroke: black;" x="10" y="1176"></rect><g><text fill="black" font-family="Helvetica,sans-Serif" x="49.75" y="1195" style="text-anchor: middle; alignment-baseline: central;">Browser</text></g><path d="M49.75,58 v1118" style="stroke-width: 1; fill: none; stroke: black;"></path><rect width="71" height="38" style="stroke-width: 1; fill: none; stroke: black;" x="225.75" y="20"></rect><g><text fill="black" font-family="Helvetica,sans-Serif" x="261.25" y="39" style="text-anchor: middle; alignment-baseline: central;">UI-API</text></g><rect width="71" height="38" style="stroke-width: 1; fill: none; stroke: black;" x="225.75" y="1176"></rect><g><text fill="black" font-family="Helvetica,sans-Serif" x="261.25" y="1195" style="text-anchor: middle; alignment-baseline: central;">UI-API</text></g><path d="M261.25,58 v1118" style="stroke-width: 1; fill: none; stroke: black;"></path><rect width="54" height="38" style="stroke-width: 1; fill: none; stroke: black;" x="347.75" y="20"></rect><g><text fill="black" font-family="Helvetica,sans-Serif" x="374.75" y="39" style="text-anchor: middle; alignment-baseline: central;">OAPI</text></g><rect width="54" height="38" style="stroke-width: 1; fill: none; stroke: black;" x="347.75" y="1176"></rect><g><text fill="black" font-family="Helvetica,sans-Serif" x="374.75" y="1195" style="text-anchor: middle; alignment-baseline: central;">OAPI</text></g><path d="M374.75,58 v1118" style="stroke-width: 1; fill: none; stroke: black;"></path><rect width="164.5" height="38" style="stroke-width: 1; fill: none; stroke: black;" x="521" y="20"></rect><g><text fill="black" font-family="Helvetica,sans-Serif" x="603.25" y="39" style="text-anchor: middle; alignment-baseline: central;">Amex-OfferService</text></g><rect width="164.5" height="38" style="stroke-width: 1; fill: none; stroke: black;" x="521" y="1176"></rect><g><text fill="black" font-family="Helvetica,sans-Serif" x="603.25" y="1195" style="text-anchor: middle; alignment-baseline: central;">Amex-OfferService</text></g><path d="M603.25,58 v1118" style="stroke-width: 1; fill: none; stroke: black;"></path><path d="M217.25,78 L217.25,85 L224.25,85 L217.25,78 L69.75,78 L69.75,106 L224.25,106 L224.25,85 Z" style="stroke-width: 1; fill: cornsilk; stroke: black;"></path><g><text fill="black" font-family="Helvetica,sans-Serif" x="147" y="92" style="text-anchor: middle; alignment-baseline: central;">1. Display Offers</text></g><g><text fill="black" font-family="Helvetica,sans-Serif" x="155.5" y="131" style="text-anchor: middle; alignment-baseline: central;">GET /offers </text></g><path d="M49.75,144 h211.5" style="stroke-width: 1; fill: none; stroke: black;" marker-end="url(#arrow-filled)"></path><g><text fill="black" font-family="Helvetica,sans-Serif" x="318" y="169" style="text-anchor: middle; alignment-baseline: central;">GET /TBD? </text></g><path d="M261.25,182 h113.5" style="stroke-width: 1; fill: none; stroke: black;" marker-end="url(#arrow-filled)"></path><g><text fill="black" font-family="Helvetica,sans-Serif" x="484.75" y="211" style="text-anchor: middle; alignment-baseline: central;">Choose Offer Service</text></g><path d="M374.75,197 C414.75,197 414.75,230 374.75,230" style="stroke-width: 1; fill: none; stroke: black;" marker-end="url(#arrow-filled)"></path><path d="M576.25,240 L576.25,247 L583.25,247 L576.25,240 L394.75,240 L394.75,304 L583.25,304 L583.25,247 Z" style="stroke-width: 1; fill: cornsilk; stroke: black;"></path><g><text fill="black" font-family="Helvetica,sans-Serif" x="489" y="254" style="text-anchor: middle; alignment-baseline: central;">Strategy Selector</text><text fill="black" font-family="Helvetica,sans-Serif" x="489" y="272" style="text-anchor: middle; alignment-baseline: central;">Selector</text><text fill="black" font-family="Helvetica,sans-Serif" x="489" y="290" style="text-anchor: middle; alignment-baseline: central;">(Product/ProductItem)</text></g><g><text fill="black" font-family="Helvetica,sans-Serif" x="489" y="329" style="text-anchor: middle; alignment-baseline: central;">response </text></g><path d="M603.25,342 h-228.5" style="stroke-width: 1; fill: none; stroke: black;" stroke-dasharray="7,4" marker-end="url(#arrow-filled)"></path><g><text fill="black" font-family="Helvetica,sans-Serif" x="318" y="367" style="text-anchor: middle; alignment-baseline: central;">response </text></g><path d="M374.75,380 h-113.5" style="stroke-width: 1; fill: none; stroke: black;" stroke-dasharray="7,4" marker-end="url(#arrow-filled)"></path><g><text fill="black" font-family="Helvetica,sans-Serif" x="155.5" y="405" style="text-anchor: middle; alignment-baseline: central;">response </text></g><path d="M261.25,418 h-211.5" style="stroke-width: 1; fill: none; stroke: black;" stroke-dasharray="7,4" marker-end="url(#arrow-filled)"></path><path d="M234.25,438 L234.25,445 L241.25,445 L234.25,438 L69.75,438 L69.75,484 L241.25,484 L241.25,445 Z" style="stroke-width: 1; fill: cornsilk; stroke: black;"></path><g><text fill="black" font-family="Helvetica,sans-Serif" x="155.5" y="452" style="text-anchor: middle; alignment-baseline: central;">2. Display a single</text><text fill="black" font-family="Helvetica,sans-Serif" x="155.5" y="470" style="text-anchor: middle; alignment-baseline: central;">offer</text></g><g><text fill="black" font-family="Helvetica,sans-Serif" x="155.5" y="509" style="text-anchor: middle; alignment-baseline: central;">GET /offer/{id} </text></g><path d="M49.75,522 h211.5" style="stroke-width: 1; fill: none; stroke: black;" marker-end="url(#arrow-filled)"></path><g><text fill="black" font-family="Helvetica,sans-Serif" x="318" y="547" style="text-anchor: middle; alignment-baseline: central;">GET /TBD? </text></g><path d="M261.25,560 h113.5" style="stroke-width: 1; fill: none; stroke: black;" marker-end="url(#arrow-filled)"></path><g><text fill="black" font-family="Helvetica,sans-Serif" x="484.75" y="589" style="text-anchor: middle; alignment-baseline: central;">Choose Offer Service</text></g><path d="M374.75,575 C414.75,575 414.75,608 374.75,608" style="stroke-width: 1; fill: none; stroke: black;" marker-end="url(#arrow-filled)"></path><path d="M576.25,618 L576.25,625 L583.25,625 L576.25,618 L394.75,618 L394.75,682 L583.25,682 L583.25,625 Z" style="stroke-width: 1; fill: cornsilk; stroke: black;"></path><g><text fill="black" font-family="Helvetica,sans-Serif" x="489" y="632" style="text-anchor: middle; alignment-baseline: central;">Strategy Selector</text><text fill="black" font-family="Helvetica,sans-Serif" x="489" y="650" style="text-anchor: middle; alignment-baseline: central;">Selector</text><text fill="black" font-family="Helvetica,sans-Serif" x="489" y="668" style="text-anchor: middle; alignment-baseline: central;">(Product/ProductItem)</text></g><g><text fill="black" font-family="Helvetica,sans-Serif" x="489" y="707" style="text-anchor: middle; alignment-baseline: central;">response </text></g><path d="M603.25,720 h-228.5" style="stroke-width: 1; fill: none; stroke: black;" stroke-dasharray="7,4" marker-end="url(#arrow-filled)"></path><g><text fill="black" font-family="Helvetica,sans-Serif" x="318" y="745" style="text-anchor: middle; alignment-baseline: central;">response </text></g><path d="M374.75,758 h-113.5" style="stroke-width: 1; fill: none; stroke: black;" stroke-dasharray="7,4" marker-end="url(#arrow-filled)"></path><g><text fill="black" font-family="Helvetica,sans-Serif" x="155.5" y="783" style="text-anchor: middle; alignment-baseline: central;">response </text></g><path d="M261.25,796 h-211.5" style="stroke-width: 1; fill: none; stroke: black;" stroke-dasharray="7,4" marker-end="url(#arrow-filled)"></path><path d="M200.25,816 L200.25,823 L207.25,823 L200.25,816 L69.75,816 L69.75,844 L207.25,844 L207.25,823 Z" style="stroke-width: 1; fill: cornsilk; stroke: black;"></path><g><text fill="black" font-family="Helvetica,sans-Serif" x="138.5" y="830" style="text-anchor: middle; alignment-baseline: central;">3. Add an offer</text></g><g><text fill="black" font-family="Helvetica,sans-Serif" x="155.5" y="869" style="text-anchor: middle; alignment-baseline: central;">POST /offer/{id}/add </text></g><path d="M49.75,882 h211.5" style="stroke-width: 1; fill: none; stroke: black;" marker-end="url(#arrow-filled)"></path><g><text fill="black" font-family="Helvetica,sans-Serif" x="318" y="907" style="text-anchor: middle; alignment-baseline: central;">POST /TBD? </text></g><path d="M261.25,920 h113.5" style="stroke-width: 1; fill: none; stroke: black;" marker-end="url(#arrow-filled)"></path><g><text fill="black" font-family="Helvetica,sans-Serif" x="484.75" y="949" style="text-anchor: middle; alignment-baseline: central;">Choose Offer Service</text></g><path d="M374.75,935 C414.75,935 414.75,968 374.75,968" style="stroke-width: 1; fill: none; stroke: black;" marker-end="url(#arrow-filled)"></path><path d="M576.25,978 L576.25,985 L583.25,985 L576.25,978 L394.75,978 L394.75,1042 L583.25,1042 L583.25,985 Z" style="stroke-width: 1; fill: cornsilk; stroke: black;"></path><g><text fill="black" font-family="Helvetica,sans-Serif" x="489" y="992" style="text-anchor: middle; alignment-baseline: central;">Strategy Selector</text><text fill="black" font-family="Helvetica,sans-Serif" x="489" y="1010" style="text-anchor: middle; alignment-baseline: central;">Selector</text><text fill="black" font-family="Helvetica,sans-Serif" x="489" y="1028" style="text-anchor: middle; alignment-baseline: central;">(Product/ProductItem)</text></g><g><text fill="black" font-family="Helvetica,sans-Serif" x="489" y="1067" style="text-anchor: middle; alignment-baseline: central;">response </text></g><path d="M603.25,1080 h-228.5" style="stroke-width: 1; fill: none; stroke: black;" stroke-dasharray="7,4" marker-end="url(#arrow-filled)"></path><g><text fill="black" font-family="Helvetica,sans-Serif" x="318" y="1105" style="text-anchor: middle; alignment-baseline: central;">response </text></g><path d="M374.75,1118 h-113.5" style="stroke-width: 1; fill: none; stroke: black;" stroke-dasharray="7,4" marker-end="url(#arrow-filled)"></path><g><text fill="black" font-family="Helvetica,sans-Serif" x="155.5" y="1143" style="text-anchor: middle; alignment-baseline: central;">response </text></g><path d="M261.25,1156 h-211.5" style="stroke-width: 1; fill: none; stroke: black;" stroke-dasharray="7,4" marker-end="url(#arrow-filled)"></path></svg>